<?xml version="1.0" encoding="UTF-8" standalone="no"?><svg xmlns="http://www.w3.org/2000/svg" xmlns:xlink="http://www.w3.org/1999/xlink" contentScriptType="application/ecmascript" contentStyleType="text/css" height="921.25px" preserveAspectRatio="none" style="width:1117px;height:921px;" version="1.1" viewBox="0 0 1117 921" width="1117.5px" zoomAndPan="magnify"><defs><filter height="300%" id="f1uslpgyjnyoba" width="300%" x="-1" y="-1"><feGaussianBlur result="blurOut" stdDeviation="2.5"/><feColorMatrix in="blurOut" result="blurOut2" type="matrix" values="0 0 0 0 0 0 0 0 0 0 0 0 0 0 0 0 0 0 .4 0"/><feOffset dx="5.0" dy="5.0" in="blurOut2" result="blurOut3"/><feBlend in="SourceGraphic" in2="blurOut3" mode="normal"/></filter></defs><g><!--MD5=[3fd616f346a44cd59a91eb10b19e157c]
class User--><rect fill="#FEFECE" filter="url(#f1uslpgyjnyoba)" height="267.5391" id="User" style="stroke: #A80036; stroke-width: 1.875;" width="135" x="571.25" y="10"/><ellipse cx="617.5625" cy="30" fill="#ADD1B2" rx="13.75" ry="13.75" style="stroke: #A80036; stroke-width: 1.25;"/><path d="M620.0625,25.625 Q620.3164,25 620.6094,24.6875 Q620.9023,24.375 621.2344,24.375 Q621.8203,24.375 622.1914,24.7266 Q622.5625,25.0781 622.5625,25.8984 L622.5625,27.8516 Q622.5625,28.6719 622.2109,29.0234 Q621.8594,29.375 621.3125,29.375 Q620.8242,29.375 620.5117,29.1602 Q620.1992,28.9453 620.0625,28.3789 Q620.0039,27.9883 619.7891,27.7734 Q619.3984,27.3633 618.6953,27.1289 Q617.9922,26.875 617.2891,26.875 Q616.4102,26.875 615.668,27.2266 Q614.9453,27.5781 614.3789,28.3594 Q613.8125,29.1406 613.8125,30.2148 L613.8125,31.3672 Q613.8125,32.6563 614.8672,33.5156 Q615.9219,34.375 617.7969,34.375 Q618.9102,34.375 619.6914,34.1211 Q620.1406,33.9844 620.6484,33.5352 Q620.9805,33.2813 621.1563,33.2031 Q621.332,33.125 621.5469,33.125 Q621.957,33.125 622.25,33.457 Q622.5625,33.7695 622.5625,34.2188 Q622.5625,34.6484 622.1328,35.1563 Q621.5078,35.8984 620.5117,36.3086 Q619.2031,36.875 617.6016,36.875 Q615.7266,36.875 614.2227,36.1328 Q613.0117,35.5469 612.1523,34.2773 Q611.3125,33.0078 611.3125,31.5039 L611.3125,30.1367 Q611.3125,28.5742 612.0547,27.207 Q612.8164,25.8398 614.125,25.1172 Q615.4531,24.375 616.9375,24.375 Q617.8359,24.375 618.6172,24.6875 Q619.3984,25 620.0625,25.625 Z "/><text fill="#000000" font-family="sans-serif" font-size="15" lengthAdjust="spacingAndGlyphs" textLength="33.75" x="641.1875" y="36.1377">User</text><line style="stroke: #A80036; stroke-width: 1.875;" x1="572.5" x2="705" y1="50" y2="50"/><text fill="#000000" font-family="sans-serif" font-size="13.75" lengthAdjust="spacingAndGlyphs" textLength="43.75" x="578.75" y="69.2737">Long id</text><text fill="#000000" font-family="sans-serif" font-size="13.75" lengthAdjust="spacingAndGlyphs" textLength="66.25" x="578.75" y="86.5686">String login</text><text fill="#000000" font-family="sans-serif" font-size="13.75" lengthAdjust="spacingAndGlyphs" textLength="101.25" x="578.75" y="103.8635">String password</text><text fill="#000000" font-family="sans-serif" font-size="13.75" lengthAdjust="spacingAndGlyphs" textLength="96.25" x="578.75" y="121.1584">String firstName</text><text fill="#000000" font-family="sans-serif" font-size="13.75" lengthAdjust="spacingAndGlyphs" textLength="93.75" x="578.75" y="138.4534">String lastName</text><text fill="#000000" font-family="sans-serif" font-size="13.75" lengthAdjust="spacingAndGlyphs" textLength="68.75" x="578.75" y="155.7483">String email</text><text fill="#000000" font-family="sans-serif" font-size="13.75" lengthAdjust="spacingAndGlyphs" textLength="87.5" x="578.75" y="173.0432">String langKey</text><text fill="#000000" font-family="sans-serif" font-size="13.75" lengthAdjust="spacingAndGlyphs" textLength="90" x="578.75" y="190.3381">String imageUrl</text><text fill="#000000" font-family="sans-serif" font-size="13.75" lengthAdjust="spacingAndGlyphs" textLength="120" x="578.75" y="207.6331">String activationKey</text><text fill="#000000" font-family="sans-serif" font-size="13.75" lengthAdjust="spacingAndGlyphs" textLength="93.75" x="578.75" y="224.928">String resetKey</text><text fill="#000000" font-family="sans-serif" font-size="13.75" lengthAdjust="spacingAndGlyphs" textLength="102.5" x="578.75" y="242.2229">Instant resetDate</text><text fill="#000000" font-family="sans-serif" font-size="13.75" lengthAdjust="spacingAndGlyphs" textLength="81.25" x="578.75" y="259.5178">UserRole role</text><line style="stroke: #A80036; stroke-width: 1.875;" x1="572.5" x2="705" y1="267.5391" y2="267.5391"/><!--MD5=[45d42ff7800d812d5f83c7d3273eb427]
class UserRole--><rect fill="#FEFECE" filter="url(#f1uslpgyjnyoba)" height="77.2949" id="UserRole" style="stroke: #A80036; stroke-width: 1.875;" width="127.5" x="575" y="352.5"/><ellipse cx="603.875" cy="372.5" fill="#A9DCDF" rx="13.75" ry="13.75" style="stroke: #A80036; stroke-width: 1.25;"/><path d="M606.0625,374.375 L601.9414,374.375 L601.3945,375.625 L601.3945,375.625 L601.9805,375.625 L602.625,376.4063 L602.625,376.875 L602.625,377.3438 L601.9805,378.125 L601.3945,378.125 L599.0313,378.125 L598.2695,378.125 L597.625,377.3438 L597.625,376.875 L597.625,376.4063 L598.2695,375.625 L599.0313,375.625 L601.9219,368.125 L600.8281,368.125 L599.5195,368.125 L598.875,367.3438 L598.875,366.875 L598.875,366.4063 L599.5195,365.625 L600.8281,365.625 L605.418,365.625 L608.7773,375.625 L609.4805,375.625 L609.4805,375.625 L610.125,376.4063 L610.125,376.875 L610.125,377.3438 L609.4805,378.125 L608.7773,378.125 L606.4141,378.125 L605.7695,378.125 L605.125,377.3438 L605.125,376.875 L605.125,376.4063 L605.7695,375.625 L606.4141,375.625 L606.4141,375.625 L606.0625,374.375 Z M605.3789,371.875 L603.875,367.4023 L602.5859,371.875 L605.3789,371.875 Z "/><text fill="#000000" font-family="sans-serif" font-size="15" font-style="italic" lengthAdjust="spacingAndGlyphs" textLength="65" x="623.625" y="378.6377">UserRole</text><line style="stroke: #A80036; stroke-width: 1.875;" x1="576.25" x2="701.25" y1="392.5" y2="392.5"/><text fill="#000000" font-family="sans-serif" font-size="13.75" lengthAdjust="spacingAndGlyphs" textLength="112.5" x="582.5" y="411.7737">boolean availability</text><line style="stroke: #A80036; stroke-width: 1.875;" x1="576.25" x2="701.25" y1="419.7949" y2="419.7949"/><!--MD5=[5a42d898e2a5d299cc26761d1eaa7d84]
class Doctor--><rect fill="#FEFECE" filter="url(#f1uslpgyjnyoba)" height="94.5898" id="Doctor" style="stroke: #A80036; stroke-width: 1.875;" width="217.5" x="7.5" y="505"/><ellipse cx="88.4375" cy="525" fill="#ADD1B2" rx="13.75" ry="13.75" style="stroke: #A80036; stroke-width: 1.25;"/><path d="M90.9375,520.625 Q91.1914,520 91.4844,519.6875 Q91.7773,519.375 92.1094,519.375 Q92.6953,519.375 93.0664,519.7266 Q93.4375,520.0781 93.4375,520.8984 L93.4375,522.8516 Q93.4375,523.6719 93.0859,524.0234 Q92.7344,524.375 92.1875,524.375 Q91.6992,524.375 91.3867,524.1602 Q91.0742,523.9453 90.9375,523.3789 Q90.8789,522.9883 90.6641,522.7734 Q90.2734,522.3633 89.5703,522.1289 Q88.8672,521.875 88.1641,521.875 Q87.2852,521.875 86.543,522.2266 Q85.8203,522.5781 85.2539,523.3594 Q84.6875,524.1406 84.6875,525.2148 L84.6875,526.3672 Q84.6875,527.6563 85.7422,528.5156 Q86.7969,529.375 88.6719,529.375 Q89.7852,529.375 90.5664,529.1211 Q91.0156,528.9844 91.5234,528.5352 Q91.8555,528.2813 92.0313,528.2031 Q92.207,528.125 92.4219,528.125 Q92.832,528.125 93.125,528.457 Q93.4375,528.7695 93.4375,529.2188 Q93.4375,529.6484 93.0078,530.1563 Q92.3828,530.8984 91.3867,531.3086 Q90.0781,531.875 88.4766,531.875 Q86.6016,531.875 85.0977,531.1328 Q83.8867,530.5469 83.0273,529.2773 Q82.1875,528.0078 82.1875,526.5039 L82.1875,525.1367 Q82.1875,523.5742 82.9297,522.207 Q83.6914,520.8398 85,520.1172 Q86.3281,519.375 87.8125,519.375 Q88.7109,519.375 89.4922,519.6875 Q90.2734,520 90.9375,520.625 Z "/><text fill="#000000" font-family="sans-serif" font-size="15" lengthAdjust="spacingAndGlyphs" textLength="45" x="114.0625" y="531.1377">Doctor</text><line style="stroke: #A80036; stroke-width: 1.875;" x1="8.75" x2="223.75" y1="545" y2="545"/><text fill="#000000" font-family="sans-serif" font-size="13.75" lengthAdjust="spacingAndGlyphs" textLength="158.75" x="15" y="564.2737">boolean isPreferredDoctor</text><text fill="#000000" font-family="sans-serif" font-size="13.75" lengthAdjust="spacingAndGlyphs" textLength="202.5" x="15" y="581.5686">Collection&lt;TurnEvent&gt; turnEvents</text><line style="stroke: #A80036; stroke-width: 1.875;" x1="8.75" x2="223.75" y1="589.5898" y2="589.5898"/><!--MD5=[2d53307540ce1ed7dbd1abbdf3ddac8f]
class Anesthesiologist--><rect fill="#FEFECE" filter="url(#f1uslpgyjnyoba)" height="77.2949" id="Anesthesiologist" style="stroke: #A80036; stroke-width: 1.875;" width="217.5" x="268.75" y="513.75"/><ellipse cx="315.625" cy="533.75" fill="#ADD1B2" rx="13.75" ry="13.75" style="stroke: #A80036; stroke-width: 1.25;"/><path d="M318.125,529.375 Q318.3789,528.75 318.6719,528.4375 Q318.9648,528.125 319.2969,528.125 Q319.8828,528.125 320.2539,528.4766 Q320.625,528.8281 320.625,529.6484 L320.625,531.6016 Q320.625,532.4219 320.2734,532.7734 Q319.9219,533.125 319.375,533.125 Q318.8867,533.125 318.5742,532.9102 Q318.2617,532.6953 318.125,532.1289 Q318.0664,531.7383 317.8516,531.5234 Q317.4609,531.1133 316.7578,530.8789 Q316.0547,530.625 315.3516,530.625 Q314.4727,530.625 313.7305,530.9766 Q313.0078,531.3281 312.4414,532.1094 Q311.875,532.8906 311.875,533.9648 L311.875,535.1172 Q311.875,536.4063 312.9297,537.2656 Q313.9844,538.125 315.8594,538.125 Q316.9727,538.125 317.7539,537.8711 Q318.2031,537.7344 318.7109,537.2852 Q319.043,537.0313 319.2188,536.9531 Q319.3945,536.875 319.6094,536.875 Q320.0195,536.875 320.3125,537.207 Q320.625,537.5195 320.625,537.9688 Q320.625,538.3984 320.1953,538.9063 Q319.5703,539.6484 318.5742,540.0586 Q317.2656,540.625 315.6641,540.625 Q313.7891,540.625 312.2852,539.8828 Q311.0742,539.2969 310.2148,538.0273 Q309.375,536.7578 309.375,535.2539 L309.375,533.8867 Q309.375,532.3242 310.1172,530.957 Q310.8789,529.5898 312.1875,528.8672 Q313.5156,528.125 315,528.125 Q315.8984,528.125 316.6797,528.4375 Q317.4609,528.75 318.125,529.375 Z "/><text fill="#000000" font-family="sans-serif" font-size="15" lengthAdjust="spacingAndGlyphs" textLength="115" x="339.375" y="539.8877">Anesthesiologist</text><line style="stroke: #A80036; stroke-width: 1.875;" x1="270" x2="485" y1="553.75" y2="553.75"/><text fill="#000000" font-family="sans-serif" font-size="13.75" lengthAdjust="spacingAndGlyphs" textLength="202.5" x="276.25" y="573.0237">Collection&lt;TurnEvent&gt; turnEvents</text><line style="stroke: #A80036; stroke-width: 1.875;" x1="270" x2="485" y1="581.0449" y2="581.0449"/><!--MD5=[1aaba361ec2a5ca678b589b68455fc02]
class Assistant--><rect fill="#FEFECE" filter="url(#f1uslpgyjnyoba)" height="77.2949" id="Assistant" style="stroke: #A80036; stroke-width: 1.875;" width="217.5" x="530" y="513.75"/><ellipse cx="601.5625" cy="533.75" fill="#ADD1B2" rx="13.75" ry="13.75" style="stroke: #A80036; stroke-width: 1.25;"/><path d="M604.0625,529.375 Q604.3164,528.75 604.6094,528.4375 Q604.9023,528.125 605.2344,528.125 Q605.8203,528.125 606.1914,528.4766 Q606.5625,528.8281 606.5625,529.6484 L606.5625,531.6016 Q606.5625,532.4219 606.2109,532.7734 Q605.8594,533.125 605.3125,533.125 Q604.8242,533.125 604.5117,532.9102 Q604.1992,532.6953 604.0625,532.1289 Q604.0039,531.7383 603.7891,531.5234 Q603.3984,531.1133 602.6953,530.8789 Q601.9922,530.625 601.2891,530.625 Q600.4102,530.625 599.668,530.9766 Q598.9453,531.3281 598.3789,532.1094 Q597.8125,532.8906 597.8125,533.9648 L597.8125,535.1172 Q597.8125,536.4063 598.8672,537.2656 Q599.9219,538.125 601.7969,538.125 Q602.9102,538.125 603.6914,537.8711 Q604.1406,537.7344 604.6484,537.2852 Q604.9805,537.0313 605.1563,536.9531 Q605.332,536.875 605.5469,536.875 Q605.957,536.875 606.25,537.207 Q606.5625,537.5195 606.5625,537.9688 Q606.5625,538.3984 606.1328,538.9063 Q605.5078,539.6484 604.5117,540.0586 Q603.2031,540.625 601.6016,540.625 Q599.7266,540.625 598.2227,539.8828 Q597.0117,539.2969 596.1523,538.0273 Q595.3125,536.7578 595.3125,535.2539 L595.3125,533.8867 Q595.3125,532.3242 596.0547,530.957 Q596.8164,529.5898 598.125,528.8672 Q599.4531,528.125 600.9375,528.125 Q601.8359,528.125 602.6172,528.4375 Q603.3984,528.75 604.0625,529.375 Z "/><text fill="#000000" font-family="sans-serif" font-size="15" lengthAdjust="spacingAndGlyphs" textLength="63.75" x="627.1875" y="539.8877">Assistant</text><line style="stroke: #A80036; stroke-width: 1.875;" x1="531.25" x2="746.25" y1="553.75" y2="553.75"/><text fill="#000000" font-family="sans-serif" font-size="13.75" lengthAdjust="spacingAndGlyphs" textLength="202.5" x="537.5" y="573.0237">Collection&lt;TurnEvent&gt; turnEvents</text><line style="stroke: #A80036; stroke-width: 1.875;" x1="531.25" x2="746.25" y1="581.0449" y2="581.0449"/><!--MD5=[beb9fdd6a135b3cbcf8b651cd0980e03]
class ICUNurse--><rect fill="#FEFECE" filter="url(#f1uslpgyjnyoba)" height="77.2949" id="ICUNurse" style="stroke: #A80036; stroke-width: 1.875;" width="217.5" x="791.25" y="513.75"/><ellipse cx="860.3125" cy="533.75" fill="#ADD1B2" rx="13.75" ry="13.75" style="stroke: #A80036; stroke-width: 1.25;"/><path d="M862.8125,529.375 Q863.0664,528.75 863.3594,528.4375 Q863.6523,528.125 863.9844,528.125 Q864.5703,528.125 864.9414,528.4766 Q865.3125,528.8281 865.3125,529.6484 L865.3125,531.6016 Q865.3125,532.4219 864.9609,532.7734 Q864.6094,533.125 864.0625,533.125 Q863.5742,533.125 863.2617,532.9102 Q862.9492,532.6953 862.8125,532.1289 Q862.7539,531.7383 862.5391,531.5234 Q862.1484,531.1133 861.4453,530.8789 Q860.7422,530.625 860.0391,530.625 Q859.1602,530.625 858.418,530.9766 Q857.6953,531.3281 857.1289,532.1094 Q856.5625,532.8906 856.5625,533.9648 L856.5625,535.1172 Q856.5625,536.4063 857.6172,537.2656 Q858.6719,538.125 860.5469,538.125 Q861.6602,538.125 862.4414,537.8711 Q862.8906,537.7344 863.3984,537.2852 Q863.7305,537.0313 863.9063,536.9531 Q864.082,536.875 864.2969,536.875 Q864.707,536.875 865,537.207 Q865.3125,537.5195 865.3125,537.9688 Q865.3125,538.3984 864.8828,538.9063 Q864.2578,539.6484 863.2617,540.0586 Q861.9531,540.625 860.3516,540.625 Q858.4766,540.625 856.9727,539.8828 Q855.7617,539.2969 854.9023,538.0273 Q854.0625,536.7578 854.0625,535.2539 L854.0625,533.8867 Q854.0625,532.3242 854.8047,530.957 Q855.5664,529.5898 856.875,528.8672 Q858.2031,528.125 859.6875,528.125 Q860.5859,528.125 861.3672,528.4375 Q862.1484,528.75 862.8125,529.375 Z "/><text fill="#000000" font-family="sans-serif" font-size="15" lengthAdjust="spacingAndGlyphs" textLength="68.75" x="885.9375" y="539.8877">ICUNurse</text><line style="stroke: #A80036; stroke-width: 1.875;" x1="792.5" x2="1007.5" y1="553.75" y2="553.75"/><text fill="#000000" font-family="sans-serif" font-size="13.75" lengthAdjust="spacingAndGlyphs" textLength="202.5" x="798.75" y="573.0237">Collection&lt;TurnEvent&gt; turnEvents</text><line style="stroke: #A80036; stroke-width: 1.875;" x1="792.5" x2="1007.5" y1="581.0449" y2="581.0449"/><!--MD5=[2f0ce18e491df29d77ffb91dc309834c]
class TurnEvent--><rect fill="#FEFECE" filter="url(#f1uslpgyjnyoba)" height="232.9492" id="TurnEvent" style="stroke: #A80036; stroke-width: 1.875;" width="418.75" x="429.375" y="675"/><ellipse cx="599.0625" cy="695" fill="#ADD1B2" rx="13.75" ry="13.75" style="stroke: #A80036; stroke-width: 1.25;"/><path d="M601.5625,690.625 Q601.8164,690 602.1094,689.6875 Q602.4023,689.375 602.7344,689.375 Q603.3203,689.375 603.6914,689.7266 Q604.0625,690.0781 604.0625,690.8984 L604.0625,692.8516 Q604.0625,693.6719 603.7109,694.0234 Q603.3594,694.375 602.8125,694.375 Q602.3242,694.375 602.0117,694.1602 Q601.6992,693.9453 601.5625,693.3789 Q601.5039,692.9883 601.2891,692.7734 Q600.8984,692.3633 600.1953,692.1289 Q599.4922,691.875 598.7891,691.875 Q597.9102,691.875 597.168,692.2266 Q596.4453,692.5781 595.8789,693.3594 Q595.3125,694.1406 595.3125,695.2148 L595.3125,696.3672 Q595.3125,697.6563 596.3672,698.5156 Q597.4219,699.375 599.2969,699.375 Q600.4102,699.375 601.1914,699.1211 Q601.6406,698.9844 602.1484,698.5352 Q602.4805,698.2813 602.6563,698.2031 Q602.832,698.125 603.0469,698.125 Q603.457,698.125 603.75,698.457 Q604.0625,698.7695 604.0625,699.2188 Q604.0625,699.6484 603.6328,700.1563 Q603.0078,700.8984 602.0117,701.3086 Q600.7031,701.875 599.1016,701.875 Q597.2266,701.875 595.7227,701.1328 Q594.5117,700.5469 593.6523,699.2773 Q592.8125,698.0078 592.8125,696.5039 L592.8125,695.1367 Q592.8125,693.5742 593.5547,692.207 Q594.3164,690.8398 595.625,690.1172 Q596.9531,689.375 598.4375,689.375 Q599.3359,689.375 600.1172,689.6875 Q600.8984,690 601.5625,690.625 Z "/><text fill="#000000" font-family="sans-serif" font-size="15" lengthAdjust="spacingAndGlyphs" textLength="68.75" x="624.6875" y="701.1377">TurnEvent</text><line style="stroke: #A80036; stroke-width: 1.875;" x1="430.625" x2="846.875" y1="715" y2="715"/><text fill="#000000" font-family="sans-serif" font-size="13.75" lengthAdjust="spacingAndGlyphs" textLength="112.5" x="436.875" y="734.2737">String patientName</text><text fill="#000000" font-family="sans-serif" font-size="13.75" lengthAdjust="spacingAndGlyphs" textLength="145" x="436.875" y="751.5686">String patientInformation</text><text fill="#000000" font-family="sans-serif" font-size="13.75" lengthAdjust="spacingAndGlyphs" textLength="82.5" x="436.875" y="768.8635">Doctor doctor</text><text fill="#000000" font-family="sans-serif" font-size="13.75" lengthAdjust="spacingAndGlyphs" textLength="196.25" x="436.875" y="786.1584">Collection&lt;Assistant&gt; assistants</text><text fill="#000000" font-family="sans-serif" font-size="13.75" lengthAdjust="spacingAndGlyphs" textLength="113.75" x="436.875" y="803.4534">ICUNurse icuNurse</text><text fill="#000000" font-family="sans-serif" font-size="13.75" lengthAdjust="spacingAndGlyphs" textLength="93.75" x="436.875" y="820.7483">EPriority priority</text><text fill="#000000" font-family="sans-serif" font-size="13.75" lengthAdjust="spacingAndGlyphs" textLength="71.25" x="436.875" y="838.0432">String ward</text><text fill="#000000" font-family="sans-serif" font-size="13.75" lengthAdjust="spacingAndGlyphs" textLength="115" x="436.875" y="855.3381">String roomNumber</text><text fill="#000000" font-family="sans-serif" font-size="13.75" lengthAdjust="spacingAndGlyphs" textLength="403.75" x="436.875" y="872.6331">Collection&lt;Pair&lt;LocalDateTime, LocalDateTime&gt;&gt; potentialTimeSlots</text><text fill="#000000" font-family="sans-serif" font-size="13.75" lengthAdjust="spacingAndGlyphs" textLength="317.5" x="436.875" y="889.928">Pair&lt;LocalDateTime, LocalDateTime&gt; definiteTimeSlot</text><line style="stroke: #A80036; stroke-width: 1.875;" x1="430.625" x2="846.875" y1="897.9492" y2="897.9492"/><!--MD5=[413de9675b185eaeabb5766c0b628c76]
class EPriority--><rect fill="#FEFECE" filter="url(#f1uslpgyjnyoba)" height="111.8848" id="EPriority" style="stroke: #A80036; stroke-width: 1.875;" width="96.25" x="750.625" y="87.5"/><ellipse cx="769.375" cy="107.5" fill="#EB937F" rx="13.75" ry="13.75" style="stroke: #A80036; stroke-width: 1.25;"/><path d="M767.5,108.75 L767.5,111.25 L772.5,111.25 L772.5,110 L772.5,109.3945 L773.2813,108.75 L773.75,108.75 L774.2188,108.75 L775,109.3945 L775,110 L775,113.75 L765,113.75 L764.3945,113.75 L763.75,112.9688 L763.75,112.5 L763.75,112.0313 L764.3945,111.25 L765,111.25 L765,111.25 L765,103.75 L765,103.75 L764.3945,103.75 L763.75,102.9688 L763.75,102.5 L763.75,102.0313 L764.3945,101.25 L765,101.25 L775,101.25 L775,105 L775,105.6055 L774.2188,106.25 L773.75,106.25 L773.2813,106.25 L772.5,105.6055 L772.5,105 L772.5,103.75 L767.5,103.75 L767.5,106.25 L768.75,106.25 L768.75,105.6445 L768.75,105.6445 L769.5313,105 L770,105 L770.4688,105 L771.25,105.6445 L771.25,106.25 L771.25,108.75 L771.25,109.3555 L770.4688,110 L770.4688,110 L770,110 L769.5313,110 L768.75,109.3555 L768.75,109.3555 L768.75,108.75 L767.5,108.75 Z "/><text fill="#000000" font-family="sans-serif" font-size="15" lengthAdjust="spacingAndGlyphs" textLength="56.25" x="786.875" y="113.6377">EPriority</text><line style="stroke: #A80036; stroke-width: 1.875;" x1="751.875" x2="845.625" y1="127.5" y2="127.5"/><text fill="#000000" font-family="sans-serif" font-size="13.75" lengthAdjust="spacingAndGlyphs" textLength="22.5" x="758.125" y="146.7737">low</text><text fill="#000000" font-family="sans-serif" font-size="13.75" lengthAdjust="spacingAndGlyphs" textLength="25" x="758.125" y="164.0686">high</text><text fill="#000000" font-family="sans-serif" font-size="13.75" lengthAdjust="spacingAndGlyphs" textLength="38.75" x="758.125" y="181.3635">urgent</text><line style="stroke: #A80036; stroke-width: 1.875;" x1="751.875" x2="845.625" y1="189.3848" y2="189.3848"/><!--MD5=[95db05b050baef27771ec21d480edb9f]
reverse link User to UserRole--><path d="M638.75,293.855 C638.75,315.49 638.75,335.975 638.75,352.4313 " fill="none" id="User&lt;-UserRole" style="stroke: #A80036; stroke-width: 1.25;"/><polygon fill="#A80036" points="638.75,277.5388,633.75,285.0388,638.75,292.5388,643.75,285.0388,638.75,277.5388" style="stroke: #A80036; stroke-width: 1.25;"/><text fill="#000000" font-family="sans-serif" font-size="16.25" lengthAdjust="spacingAndGlyphs" textLength="8.75" x="629.6924" y="304.5319">1</text><text fill="#000000" font-family="sans-serif" font-size="16.25" lengthAdjust="spacingAndGlyphs" textLength="8.75" x="629.043" y="338.6915">1</text><!--MD5=[427d2c0bbf9bc89b7e4624bf8c2b0e36]
reverse link UserRole to Doctor--><path d="M550.3913,416.1225 C470.5275,437.8775 349.9412,471.73 246.25,505 C239.4075,507.195 232.3825,509.5112 225.3138,511.89 " fill="none" id="UserRole&lt;-Doctor" style="stroke: #A80036; stroke-width: 1.25;"/><polygon fill="none" points="548.3988,407.5975,574.8175,409.5013,552.9788,424.4875,548.3988,407.5975" style="stroke: #A80036; stroke-width: 1.25;"/><!--MD5=[71e5d824e8a7727c5f93b89a28051db8]
reverse link UserRole to Anesthesiologist--><path d="M554.9563,443.4175 C517.4238,466.225 473.9462,492.6438 439.42,513.6238 " fill="none" id="UserRole&lt;-Anesthesiologist" style="stroke: #A80036; stroke-width: 1.25;"/><polygon fill="none" points="550.9288,435.6262,576.8375,430.1213,560.0163,450.5812,550.9288,435.6262" style="stroke: #A80036; stroke-width: 1.25;"/><!--MD5=[10c60fb1dc0b5404d64a4527238c2bfa]
reverse link UserRole to Assistant--><path d="M638.75,455.1513 C638.75,474.8275 638.75,495.9387 638.75,513.3488 " fill="none" id="UserRole&lt;-Assistant" style="stroke: #A80036; stroke-width: 1.25;"/><polygon fill="none" points="630,455.1213,638.75,430.1213,647.5,455.1213,630,455.1213" style="stroke: #A80036; stroke-width: 1.25;"/><!--MD5=[3ebf1c6dd574a90294929d20b208c088]
reverse link UserRole to ICUNurse--><path d="M722.5437,443.4175 C760.0763,466.225 803.5537,492.6438 838.08,513.6238 " fill="none" id="UserRole&lt;-ICUNurse" style="stroke: #A80036; stroke-width: 1.25;"/><polygon fill="none" points="717.4838,450.5812,700.6625,430.1213,726.5713,435.6262,717.4838,450.5812" style="stroke: #A80036; stroke-width: 1.25;"/><!--MD5=[1d1f47cce5492b9b3f103bd7a0fb8570]
link Doctor to TurnEvent--><path d="M218.8563,600.1438 C274.6475,625.37 345.975,657.6212 413.945,688.3538 " fill="none" id="Doctor-&gt;TurnEvent" style="stroke: #A80036; stroke-width: 1.25;"/><polygon fill="#FFFFFF" points="428.845,695.0913,424.0717,687.445,415.1777,688.9103,419.951,696.5565,428.845,695.0913" style="stroke: #A80036; stroke-width: 1.25;"/><text fill="#000000" font-family="sans-serif" font-size="16.25" lengthAdjust="spacingAndGlyphs" textLength="8.75" x="226.3758" y="626.6303">1</text><text fill="#000000" font-family="sans-serif" font-size="16.25" lengthAdjust="spacingAndGlyphs" textLength="27.5" x="391.9096" y="687.4814">1..n</text><!--MD5=[75a60f35152623e17b5f65dd91c6d41b]
link Anesthesiologist to TurnEvent--><path d="M419.4738,591.7075 C441.435,611.5663 469.7238,637.1488 498.6363,663.2938 " fill="none" id="Anesthesiologist-&gt;TurnEvent" style="stroke: #A80036; stroke-width: 1.25;"/><polygon fill="#FFFFFF" points="511.0488,674.5188,508.8402,665.7796,499.9239,664.4571,502.1324,673.1962,511.0488,674.5188" style="stroke: #A80036; stroke-width: 1.25;"/><text fill="#000000" font-family="sans-serif" font-size="16.25" lengthAdjust="spacingAndGlyphs" textLength="8.75" x="417.891" y="618.018">1</text><text fill="#000000" font-family="sans-serif" font-size="16.25" lengthAdjust="spacingAndGlyphs" textLength="27.5" x="472.2769" y="661.2884">1..n</text><!--MD5=[eeff6f02584de6291708ae87a0dc73ff]
link Assistant to TurnEvent--><path d="M638.75,591.7075 C638.75,610.2362 638.75,633.7475 638.75,658.0513 " fill="none" id="Assistant-&gt;TurnEvent" style="stroke: #A80036; stroke-width: 1.25;"/><polygon fill="#FFFFFF" points="638.75,674.5188,643.75,667.0188,638.75,659.5188,633.75,667.0188,638.75,674.5188" style="stroke: #A80036; stroke-width: 1.25;"/><text fill="#000000" font-family="sans-serif" font-size="16.25" lengthAdjust="spacingAndGlyphs" textLength="27.5" x="608.6289" y="618.018">1..n</text><text fill="#000000" font-family="sans-serif" font-size="16.25" lengthAdjust="spacingAndGlyphs" textLength="27.5" x="610.1543" y="661.2884">1..n</text><!--MD5=[b3265a557c4e01c58302274d059e885f]
link ICUNurse to TurnEvent--><path d="M858.0263,591.7075 C836.065,611.5663 807.7763,637.1488 778.8638,663.2938 " fill="none" id="ICUNurse-&gt;TurnEvent" style="stroke: #A80036; stroke-width: 1.25;"/><polygon fill="#FFFFFF" points="766.4513,674.5188,775.3676,673.1962,777.5761,664.4571,768.6598,665.7796,766.4513,674.5188" style="stroke: #A80036; stroke-width: 1.25;"/><text fill="#000000" font-family="sans-serif" font-size="16.25" lengthAdjust="spacingAndGlyphs" textLength="8.75" x="840.441" y="618.018">1</text><text fill="#000000" font-family="sans-serif" font-size="16.25" lengthAdjust="spacingAndGlyphs" textLength="27.5" x="748.0317" y="661.2884">1..n</text><!--MD5=[b1cddca5c5d6da11fb2e17a758c777c7]
link UserRole to TurnEvent--><path d="M702.6538,401.4513 C803.37,417.0112 991.68,452.495 1031.25,505 C1102.7775,599.9088 976.1625,676.7875 848.1288,726.6725 " fill="none" id="UserRole-TurnEvent" style="stroke: #A80036; stroke-width: 1.25;"/><text fill="#000000" font-family="sans-serif" font-size="16.25" lengthAdjust="spacingAndGlyphs" textLength="27.5" x="712.6031" y="398.3872">1..n</text><text fill="#000000" font-family="sans-serif" font-size="16.25" lengthAdjust="spacingAndGlyphs" textLength="27.5" x="858.2393" y="720.1619">1..n</text><!--MD5=[7e91bcc149e630e7790be7d098f65d39]
@startuml
    class User {
        Long id
        String login
        String password
        String firstName
        String lastName
        String email
        String langKey
        String imageUrl
        String activationKey
        String resetKey
        Instant resetDate
        UserRole role
    }

    abstract class UserRole {
        boolean availability
    }

    class Doctor {
        boolean isPreferredDoctor
        Collection<TurnEvent> turnEvents
    }
    class Anesthesiologist {
        Collection<TurnEvent> turnEvents
    }
    class Assistant {
        Collection<TurnEvent> turnEvents
    }
    class ICUNurse {
        Collection<TurnEvent> turnEvents
    }

    class TurnEvent {
        String patientName
        String patientInformation
        Doctor doctor
        Collection<Assistant> assistants
        ICUNurse icuNurse
        EPriority priority
        String ward
        String roomNumber
        Collection<Pair<LocalDateTime, LocalDateTime>> potentialTimeSlots
        Pair<LocalDateTime, LocalDateTime> definiteTimeSlot
    }

    enum EPriority {
        low
        high
        urgent
    }

    User "1" *- - "1" UserRole
    Doctor -up-|> UserRole
    Anesthesiologist -up-|> UserRole
    Assistant -up-|> UserRole
    ICUNurse -up-|> UserRole

    Doctor "1" - -o "1..n" TurnEvent
    Anesthesiologist "1" - -o "1..n" TurnEvent
    Assistant "1..n" - -o "1..n" TurnEvent
    ICUNurse "1" - -o "1..n" TurnEvent

    UserRole "1..n" - - "1..n" TurnEvent

@enduml

PlantUML version 1.2020.03beta6(Unknown compile time)
(GPL source distribution)
Java Runtime: OpenJDK Runtime Environment
JVM: OpenJDK 64-Bit Server VM
Java Version: 11.0.6+8-b765.25
Operating System: Windows 10
Default Encoding: Cp1252
Language: de
Country: CH
--></g></svg>
