<?xml version="1.0" encoding="UTF-8" standalone="no"?><svg xmlns="http://www.w3.org/2000/svg" xmlns:xlink="http://www.w3.org/1999/xlink" contentScriptType="application/ecmascript" contentStyleType="text/css" height="609px" preserveAspectRatio="none" style="width:561px;height:609px;" version="1.1" viewBox="0 0 561 609" width="561px" zoomAndPan="magnify"><defs><filter height="300%" id="falzw06fwxe32" width="300%" x="-1" y="-1"><feGaussianBlur result="blurOut" stdDeviation="2.0"/><feColorMatrix in="blurOut" result="blurOut2" type="matrix" values="0 0 0 0 0 0 0 0 0 0 0 0 0 0 0 0 0 0 .4 0"/><feOffset dx="4.0" dy="4.0" in="blurOut2" result="blurOut3"/><feBlend in="SourceGraphic" in2="blurOut3" mode="normal"/></filter></defs><g><!--class User--><rect fill="#FEFECE" filter="url(#falzw06fwxe32)" height="201.6563" id="User" style="stroke: #A80036; stroke-width: 1.5;" width="124" x="269" y="8"/><ellipse cx="312.35" cy="24" fill="#ADD1B2" rx="11" ry="11" style="stroke: #A80036; stroke-width: 1.0;"/><path d="M315.35,29 Q314.7406,29.5 314.0844,29.75 Q313.4281,30 312.6938,30 Q310.0844,30 308.7172,28.4609 Q307.35,26.9219 307.35,24 Q307.35,21.0781 308.7172,19.5391 Q310.0844,18 312.6938,18 Q313.4281,18 314.1,18.25 Q314.7719,18.5 315.35,19 L315.35,22 Q314.7406,20.9688 314.1625,20.4844 Q313.5844,20 312.975,20 Q311.6781,20 311.0141,21.0078 Q310.35,22.0156 310.35,24 Q310.35,25.9844 311.0141,26.9922 Q311.6781,28 312.975,28 Q313.5844,28 314.1625,27.5156 Q314.7406,27.0313 315.35,26 L315.35,29 Z "/><text fill="#000000" font-family="sans-serif" font-size="12" lengthAdjust="spacingAndGlyphs" textLength="29" x="332.65" y="28.1543">User</text><line style="stroke: #A80036; stroke-width: 1.5;" x1="270" x2="392" y1="40" y2="40"/><text fill="#000000" font-family="sans-serif" font-size="11" lengthAdjust="spacingAndGlyphs" textLength="41" x="275" y="54.2104">Long id</text><text fill="#000000" font-family="sans-serif" font-size="11" lengthAdjust="spacingAndGlyphs" textLength="65" x="275" y="67.0151">String login</text><text fill="#000000" font-family="sans-serif" font-size="11" lengthAdjust="spacingAndGlyphs" textLength="94" x="275" y="79.8198">String password</text><text fill="#000000" font-family="sans-serif" font-size="11" lengthAdjust="spacingAndGlyphs" textLength="94" x="275" y="92.6245">String firstName</text><text fill="#000000" font-family="sans-serif" font-size="11" lengthAdjust="spacingAndGlyphs" textLength="92" x="275" y="105.4292">String lastName</text><text fill="#000000" font-family="sans-serif" font-size="11" lengthAdjust="spacingAndGlyphs" textLength="69" x="275" y="118.2339">String email</text><text fill="#000000" font-family="sans-serif" font-size="11" lengthAdjust="spacingAndGlyphs" textLength="82" x="275" y="131.0386">String langKey</text><text fill="#000000" font-family="sans-serif" font-size="11" lengthAdjust="spacingAndGlyphs" textLength="89" x="275" y="143.8433">String imageUrl</text><text fill="#000000" font-family="sans-serif" font-size="11" lengthAdjust="spacingAndGlyphs" textLength="112" x="275" y="156.6479">String activationKey</text><text fill="#000000" font-family="sans-serif" font-size="11" lengthAdjust="spacingAndGlyphs" textLength="88" x="275" y="169.4526">String resetKey</text><text fill="#000000" font-family="sans-serif" font-size="11" lengthAdjust="spacingAndGlyphs" textLength="99" x="275" y="182.2573">Instant resetDate</text><text fill="#000000" font-family="sans-serif" font-size="11" lengthAdjust="spacingAndGlyphs" textLength="77" x="275" y="195.062">UserRole role</text><line style="stroke: #A80036; stroke-width: 1.5;" x1="270" x2="392" y1="201.6563" y2="201.6563"/><!--class UserRole--><rect fill="#FEFECE" filter="url(#falzw06fwxe32)" height="60.8047" id="UserRole" style="stroke: #A80036; stroke-width: 1.5;" width="207" x="227.5" y="270"/><ellipse cx="299.25" cy="286" fill="#A9DCDF" rx="11" ry="11" style="stroke: #A80036; stroke-width: 1.0;"/><path d="M299.2813,283.0938 L297.9219,286.5 L300.5781,286.5 L299.2813,283.0938 Z M298.0156,279.5 L300.4844,279.5 L303.25,291.5 L300.8125,291.5 L300.0625,288.5 L298.4219,288.5 L297.6875,291.5 L295.25,291.5 L298.0156,279.5 Z "/><text fill="#000000" font-family="sans-serif" font-size="12" font-style="italic" lengthAdjust="spacingAndGlyphs" textLength="55" x="319.75" y="290.1543">UserRole</text><line style="stroke: #A80036; stroke-width: 1.5;" x1="228.5" x2="433.5" y1="302" y2="302"/><text fill="#000000" font-family="sans-serif" font-size="11" lengthAdjust="spacingAndGlyphs" textLength="195" x="233.5" y="316.2104">Collection&lt;TurnEvent&gt; turnEvents</text><line style="stroke: #A80036; stroke-width: 1.5;" x1="228.5" x2="433.5" y1="322.8047" y2="322.8047"/><!--class Doctor--><rect fill="#FEFECE" filter="url(#falzw06fwxe32)" height="48" id="Doctor" style="stroke: #A80036; stroke-width: 1.5;" width="74" x="6" y="391"/><ellipse cx="21" cy="407" fill="#ADD1B2" rx="11" ry="11" style="stroke: #A80036; stroke-width: 1.0;"/><path d="M24,412 Q23.3906,412.5 22.7344,412.75 Q22.0781,413 21.3438,413 Q18.7344,413 17.3672,411.4609 Q16,409.9219 16,407 Q16,404.0781 17.3672,402.5391 Q18.7344,401 21.3438,401 Q22.0781,401 22.75,401.25 Q23.4219,401.5 24,402 L24,405 Q23.3906,403.9688 22.8125,403.4844 Q22.2344,403 21.625,403 Q20.3281,403 19.6641,404.0078 Q19,405.0156 19,407 Q19,408.9844 19.6641,409.9922 Q20.3281,411 21.625,411 Q22.2344,411 22.8125,410.5156 Q23.3906,410.0313 24,409 L24,412 Z "/><text fill="#000000" font-family="sans-serif" font-size="12" lengthAdjust="spacingAndGlyphs" textLength="42" x="35" y="411.1543">Doctor</text><line style="stroke: #A80036; stroke-width: 1.5;" x1="7" x2="79" y1="423" y2="423"/><line style="stroke: #A80036; stroke-width: 1.5;" x1="7" x2="79" y1="431" y2="431"/><!--class Anesthesiologist--><rect fill="#FEFECE" filter="url(#falzw06fwxe32)" height="48" id="Anesthesiologist" style="stroke: #A80036; stroke-width: 1.5;" width="136" x="115" y="391"/><ellipse cx="130" cy="407" fill="#ADD1B2" rx="11" ry="11" style="stroke: #A80036; stroke-width: 1.0;"/><path d="M133,412 Q132.3906,412.5 131.7344,412.75 Q131.0781,413 130.3438,413 Q127.7344,413 126.3672,411.4609 Q125,409.9219 125,407 Q125,404.0781 126.3672,402.5391 Q127.7344,401 130.3438,401 Q131.0781,401 131.75,401.25 Q132.4219,401.5 133,402 L133,405 Q132.3906,403.9688 131.8125,403.4844 Q131.2344,403 130.625,403 Q129.3281,403 128.6641,404.0078 Q128,405.0156 128,407 Q128,408.9844 128.6641,409.9922 Q129.3281,411 130.625,411 Q131.2344,411 131.8125,410.5156 Q132.3906,410.0313 133,409 L133,412 Z "/><text fill="#000000" font-family="sans-serif" font-size="12" lengthAdjust="spacingAndGlyphs" textLength="104" x="144" y="411.1543">Anesthesiologist</text><line style="stroke: #A80036; stroke-width: 1.5;" x1="116" x2="250" y1="423" y2="423"/><line style="stroke: #A80036; stroke-width: 1.5;" x1="116" x2="250" y1="431" y2="431"/><!--class Assistant--><rect fill="#FEFECE" filter="url(#falzw06fwxe32)" height="48" id="Assistant" style="stroke: #A80036; stroke-width: 1.5;" width="90" x="286" y="391"/><ellipse cx="301" cy="407" fill="#ADD1B2" rx="11" ry="11" style="stroke: #A80036; stroke-width: 1.0;"/><path d="M304,412 Q303.3906,412.5 302.7344,412.75 Q302.0781,413 301.3438,413 Q298.7344,413 297.3672,411.4609 Q296,409.9219 296,407 Q296,404.0781 297.3672,402.5391 Q298.7344,401 301.3438,401 Q302.0781,401 302.75,401.25 Q303.4219,401.5 304,402 L304,405 Q303.3906,403.9688 302.8125,403.4844 Q302.2344,403 301.625,403 Q300.3281,403 299.6641,404.0078 Q299,405.0156 299,407 Q299,408.9844 299.6641,409.9922 Q300.3281,411 301.625,411 Q302.2344,411 302.8125,410.5156 Q303.3906,410.0313 304,409 L304,412 Z "/><text fill="#000000" font-family="sans-serif" font-size="12" lengthAdjust="spacingAndGlyphs" textLength="58" x="315" y="411.1543">Assistant</text><line style="stroke: #A80036; stroke-width: 1.5;" x1="287" x2="375" y1="423" y2="423"/><line style="stroke: #A80036; stroke-width: 1.5;" x1="287" x2="375" y1="431" y2="431"/><!--class ICUNurse--><rect fill="#FEFECE" filter="url(#falzw06fwxe32)" height="48" id="ICUNurse" style="stroke: #A80036; stroke-width: 1.5;" width="89" x="411.5" y="391"/><ellipse cx="426.5" cy="407" fill="#ADD1B2" rx="11" ry="11" style="stroke: #A80036; stroke-width: 1.0;"/><path d="M429.5,412 Q428.8906,412.5 428.2344,412.75 Q427.5781,413 426.8438,413 Q424.2344,413 422.8672,411.4609 Q421.5,409.9219 421.5,407 Q421.5,404.0781 422.8672,402.5391 Q424.2344,401 426.8438,401 Q427.5781,401 428.25,401.25 Q428.9219,401.5 429.5,402 L429.5,405 Q428.8906,403.9688 428.3125,403.4844 Q427.7344,403 427.125,403 Q425.8281,403 425.1641,404.0078 Q424.5,405.0156 424.5,407 Q424.5,408.9844 425.1641,409.9922 Q425.8281,411 427.125,411 Q427.7344,411 428.3125,410.5156 Q428.8906,410.0313 429.5,409 L429.5,412 Z "/><text fill="#000000" font-family="sans-serif" font-size="12" lengthAdjust="spacingAndGlyphs" textLength="57" x="440.5" y="411.1543">ICUNurse</text><line style="stroke: #A80036; stroke-width: 1.5;" x1="412.5" x2="499.5" y1="423" y2="423"/><line style="stroke: #A80036; stroke-width: 1.5;" x1="412.5" x2="499.5" y1="431" y2="431"/><!--class TurnEvent--><rect fill="#FEFECE" filter="url(#falzw06fwxe32)" height="99.2188" id="TurnEvent" style="stroke: #A80036; stroke-width: 1.5;" width="204" x="229" y="499"/><ellipse cx="295.25" cy="515" fill="#ADD1B2" rx="11" ry="11" style="stroke: #A80036; stroke-width: 1.0;"/><path d="M298.25,520 Q297.6406,520.5 296.9844,520.75 Q296.3281,521 295.5938,521 Q292.9844,521 291.6172,519.4609 Q290.25,517.9219 290.25,515 Q290.25,512.0781 291.6172,510.5391 Q292.9844,509 295.5938,509 Q296.3281,509 297,509.25 Q297.6719,509.5 298.25,510 L298.25,513 Q297.6406,511.9688 297.0625,511.4844 Q296.4844,511 295.875,511 Q294.5781,511 293.9141,512.0078 Q293.25,513.0156 293.25,515 Q293.25,516.9844 293.9141,517.9922 Q294.5781,519 295.875,519 Q296.4844,519 297.0625,518.5156 Q297.6406,518.0313 298.25,517 L298.25,520 Z "/><text fill="#000000" font-family="sans-serif" font-size="12" lengthAdjust="spacingAndGlyphs" textLength="63" x="315.75" y="519.1543">TurnEvent</text><line style="stroke: #A80036; stroke-width: 1.5;" x1="230" x2="432" y1="531" y2="531"/><text fill="#000000" font-family="sans-serif" font-size="11" lengthAdjust="spacingAndGlyphs" textLength="77" x="235" y="545.2104">Doctor doctor</text><text fill="#000000" font-family="sans-serif" font-size="11" lengthAdjust="spacingAndGlyphs" textLength="192" x="235" y="558.0151">Anesthesiologist anesthesiologist</text><text fill="#000000" font-family="sans-serif" font-size="11" lengthAdjust="spacingAndGlyphs" textLength="190" x="235" y="570.8198">Collection&lt;Assistant&gt; assistants</text><text fill="#000000" font-family="sans-serif" font-size="11" lengthAdjust="spacingAndGlyphs" textLength="107" x="235" y="583.6245">ICUNurse icuNurse</text><line style="stroke: #A80036; stroke-width: 1.5;" x1="230" x2="432" y1="590.2188" y2="590.2188"/><!--link User to UserRole--><path d="M331,223.2532 C331,240.3247 331,256.5803 331,269.7364 " fill="none" id="User-UserRole" style="stroke: #A80036; stroke-width: 1.0;"/><polygon fill="#A80036" points="331,210.0774,327,216.0774,331,222.0774,335,216.0774,331,210.0774" style="stroke: #A80036; stroke-width: 1.0;"/><text fill="#000000" font-family="sans-serif" font-size="13" lengthAdjust="spacingAndGlyphs" textLength="8" x="322.7188" y="229.7954">1</text><text fill="#000000" font-family="sans-serif" font-size="13" lengthAdjust="spacingAndGlyphs" textLength="8" x="322.175" y="258.9453">1</text><!--link UserRole to Doctor--><path d="M230.2909,338.2054 C188.824,354.0529 140.4195,372.9677 97,391 C91.5047,393.2822 85.7276,395.7622 80.0785,398.2333 " fill="none" id="UserRole-Doctor" style="stroke: #A80036; stroke-width: 1.0;"/><polygon fill="none" points="227.9353,331.6121,249.1172,331.0385,232.9162,344.6961,227.9353,331.6121" style="stroke: #A80036; stroke-width: 1.0;"/><!--link UserRole to Anesthesiologist--><path d="M275.3558,343.549 C254.7164,359.5167 232.0435,377.0575 214.3276,390.7634 " fill="none" id="UserRole-Anesthesiologist" style="stroke: #A80036; stroke-width: 1.0;"/><polygon fill="none" points="271.2367,337.8855,291.3387,331.1839,279.8034,348.9585,271.2367,337.8855" style="stroke: #A80036; stroke-width: 1.0;"/><!--link UserRole to Assistant--><path d="M331,351.2346 C331,364.9779 331,379.2288 331,390.7634 " fill="none" id="UserRole-Assistant" style="stroke: #A80036; stroke-width: 1.0;"/><polygon fill="none" points="324.0001,351.1839,331,331.1839,338.0001,351.1839,324.0001,351.1839" style="stroke: #A80036; stroke-width: 1.0;"/><!--link UserRole to ICUNurse--><path d="M379.2943,344.7376 C396.3741,360.3827 414.9484,377.3968 429.5409,390.7634 " fill="none" id="UserRole-ICUNurse" style="stroke: #A80036; stroke-width: 1.0;"/><polygon fill="none" points="374.5175,349.8549,364.4977,331.1839,383.9739,339.5313,374.5175,349.8549" style="stroke: #A80036; stroke-width: 1.0;"/><!--link Doctor to TurnEvent--><path d="M80.0614,432.1795 C114.6577,448.2163 168.1204,472.9985 216.823,495.5742 " fill="none" id="Doctor-TurnEvent" style="stroke: #A80036; stroke-width: 1.0;"/><polygon fill="#FFFFFF" points="228.7596,501.1073,224.9983,494.9549,217.8724,496.0606,221.6338,502.213,228.7596,501.1073" style="stroke: #A80036; stroke-width: 1.0;"/><text fill="#000000" font-family="sans-serif" font-size="13" lengthAdjust="spacingAndGlyphs" textLength="8" x="87.8887" y="431.1042">1</text><text fill="#000000" font-family="sans-serif" font-size="13" lengthAdjust="spacingAndGlyphs" textLength="24" x="197.0841" y="494.4832">1..n</text><!--link Anesthesiologist to TurnEvent--><path d="M209.8017,439.1758 C225.5502,453.3815 246.1936,472.0024 265.9697,489.8409 " fill="none" id="Anesthesiologist-TurnEvent" style="stroke: #A80036; stroke-width: 1.0;"/><polygon fill="#FFFFFF" points="275.8911,498.7903,274.115,491.8013,266.9806,490.7527,268.7566,497.7417,275.8911,498.7903" style="stroke: #A80036; stroke-width: 1.0;"/><text fill="#000000" font-family="sans-serif" font-size="13" lengthAdjust="spacingAndGlyphs" textLength="8" x="207.3596" y="458.9799">1</text><text fill="#000000" font-family="sans-serif" font-size="13" lengthAdjust="spacingAndGlyphs" textLength="24" x="242.4539" y="487.806">1..n</text><!--link Assistant to TurnEvent--><path d="M331,439.1758 C331,452.2787 331,469.1381 331,485.675 " fill="none" id="Assistant-TurnEvent" style="stroke: #A80036; stroke-width: 1.0;"/><polygon fill="#FFFFFF" points="331,498.7903,335,492.7903,331,486.7903,327,492.7903,331,498.7903" style="stroke: #A80036; stroke-width: 1.0;"/><text fill="#000000" font-family="sans-serif" font-size="13" lengthAdjust="spacingAndGlyphs" textLength="24" x="304.075" y="458.9799">1..n</text><text fill="#000000" font-family="sans-serif" font-size="13" lengthAdjust="spacingAndGlyphs" textLength="24" x="305.3125" y="487.806">1..n</text><!--link ICUNurse to TurnEvent--><path d="M433.3634,439.1758 C420.2445,453.1869 403.1039,471.493 386.6111,489.1074 " fill="none" id="ICUNurse-TurnEvent" style="stroke: #A80036; stroke-width: 1.0;"/><polygon fill="#FFFFFF" points="377.5447,498.7903,384.5655,497.1445,385.7466,490.0308,378.7258,491.6766,377.5447,498.7903" style="stroke: #A80036; stroke-width: 1.0;"/><text fill="#000000" font-family="sans-serif" font-size="13" lengthAdjust="spacingAndGlyphs" textLength="8" x="418.8707" y="458.9799">1</text><text fill="#000000" font-family="sans-serif" font-size="13" lengthAdjust="spacingAndGlyphs" textLength="24" x="358.4025" y="487.806">1..n</text><!--link UserRole to TurnEvent--><path d="M434.8209,326.9372 C467.0941,340.5657 499.1279,360.9007 518,391 C549.1726,440.7174 492.1392,482.6698 433.078,510.7443 " fill="none" id="UserRole-TurnEvent" style="stroke: #A80036; stroke-width: 1.0;"/><text fill="#000000" font-family="sans-serif" font-size="13" lengthAdjust="spacingAndGlyphs" textLength="24" x="442.6026" y="325.2875">1..n</text><text fill="#000000" font-family="sans-serif" font-size="13" lengthAdjust="spacingAndGlyphs" textLength="24" x="441.0991" y="504.6261">1..n</text><!--
@startuml
    class User {
        Long id
        String login
        String password
        String firstName
        String lastName
        String email
        String langKey
        String imageUrl
        String activationKey
        String resetKey
        Instant resetDate
        UserRole role
    }

    abstract class UserRole {
        Collection<TurnEvent> turnEvents
    }

    class Doctor {
    }
    class Anesthesiologist {
    }
    class Assistant {
    }
    class ICUNurse {
    }

    class TurnEvent {
        Doctor doctor
        Anesthesiologist anesthesiologist
        Collection<Assistant> assistants
        ICUNurse icuNurse
    }

    User "1" *- - "1" UserRole
    Doctor -up-|> UserRole
    Anesthesiologist -up-|> UserRole
    Assistant -up-|> UserRole
    ICUNurse -up-|> UserRole

    Doctor "1" - -o "1..n" TurnEvent
    Anesthesiologist "1" - -o "1..n" TurnEvent
    Assistant "1..n" - -o "1..n" TurnEvent
    ICUNurse "1" - -o "1..n" TurnEvent

    UserRole "1..n" - - "1..n" TurnEvent

@enduml

PlantUML version 1.2018.11(Sat Sep 22 18:43:53 CEST 2018)
(GPL source distribution)
Java Runtime: OpenJDK Runtime Environment
JVM: OpenJDK 64-Bit Server VM
Java Version: 1.8.0_152-release-1343-b26
Operating System: Linux
OS Version: 4.15.0-91-generic
Default Encoding: UTF-8
Language: en
Country: US
--></g></svg>